# xmcd
#
# Track frame offsets: 
#        150
#        14298
#        33430
#        46448
#        70567
#        88417
#        107290
#        123124
#
# Disc length: 1888 seconds
#
# Revision: 0
# Processed by: cddbd v1.5.2PL0 Copyright (c) Steve Scherf et al.
# Submitted via: ExactAudioCopyFreeDBPlugin 1.0
#
DISCID=5b075e08
DTITLE=洪启 - 九棵树
DYEAR=2008
DGENRE=Country
TTITLE0=九棵树
TTITLE1=最后的心跳
TTITLE2=岁月
TTITLE3=2001城市上空的歌
TTITLE4=苹果姑娘
TTITLE5=河
TTITLE6=城市的姑娘
TTITLE7=我们一起飞
EXTD=
EXTT0=
EXTT1=
EXTT2=
EXTT3=
EXTT4=
EXTT5=
EXTT6=
EXTT7=
PLAYORDER=
